<mxfile host="app.diagrams.net" modified="2024-03-22T01:14:30.209Z" agent="Mozilla/5.0 (Windows NT 10.0; Win64; x64) AppleWebKit/537.36 (KHTML, like Gecko) Chrome/122.0.0.0 Safari/537.36" etag="ulLJJqmb_2uXa8sbobBJ" version="24.0.7" type="device">
  <diagram name="Page-1" id="yz5cDCOMCH01OWcC4wXf">
    <mxGraphModel dx="794" dy="420" grid="1" gridSize="10" guides="1" tooltips="1" connect="1" arrows="1" fold="1" page="1" pageScale="1" pageWidth="827" pageHeight="1169" math="0" shadow="0">
      <root>
        <mxCell id="0" />
        <mxCell id="1" parent="0" />
        <mxCell id="Rt24sEBHtyEfpPhC-ors-3" style="edgeStyle=orthogonalEdgeStyle;rounded=0;orthogonalLoop=1;jettySize=auto;html=1;" edge="1" parent="1" source="Rt24sEBHtyEfpPhC-ors-1" target="Rt24sEBHtyEfpPhC-ors-2">
          <mxGeometry relative="1" as="geometry" />
        </mxCell>
        <mxCell id="Rt24sEBHtyEfpPhC-ors-1" value="Internet" style="ellipse;shape=cloud;whiteSpace=wrap;html=1;" vertex="1" parent="1">
          <mxGeometry x="290" y="50" width="120" height="80" as="geometry" />
        </mxCell>
        <mxCell id="Rt24sEBHtyEfpPhC-ors-5" style="edgeStyle=orthogonalEdgeStyle;rounded=0;orthogonalLoop=1;jettySize=auto;html=1;entryX=0;entryY=0.5;entryDx=0;entryDy=0;" edge="1" parent="1" source="Rt24sEBHtyEfpPhC-ors-2" target="Rt24sEBHtyEfpPhC-ors-4">
          <mxGeometry relative="1" as="geometry" />
        </mxCell>
        <mxCell id="Rt24sEBHtyEfpPhC-ors-2" value="Router/Modem&lt;div&gt;(192.168.1.1)&lt;/div&gt;" style="rounded=0;whiteSpace=wrap;html=1;" vertex="1" parent="1">
          <mxGeometry x="110" y="160" width="120" height="60" as="geometry" />
        </mxCell>
        <mxCell id="Rt24sEBHtyEfpPhC-ors-7" style="edgeStyle=orthogonalEdgeStyle;rounded=0;orthogonalLoop=1;jettySize=auto;html=1;entryX=0.5;entryY=0;entryDx=0;entryDy=0;" edge="1" parent="1" source="Rt24sEBHtyEfpPhC-ors-4" target="Rt24sEBHtyEfpPhC-ors-6">
          <mxGeometry relative="1" as="geometry" />
        </mxCell>
        <mxCell id="Rt24sEBHtyEfpPhC-ors-4" value="CIDR&lt;div&gt;(192.168.1.xxx/24)&lt;/div&gt;" style="rounded=0;whiteSpace=wrap;html=1;" vertex="1" parent="1">
          <mxGeometry x="294" y="160" width="120" height="60" as="geometry" />
        </mxCell>
        <mxCell id="Rt24sEBHtyEfpPhC-ors-9" style="edgeStyle=orthogonalEdgeStyle;rounded=0;orthogonalLoop=1;jettySize=auto;html=1;entryX=1;entryY=0.5;entryDx=0;entryDy=0;" edge="1" parent="1" source="Rt24sEBHtyEfpPhC-ors-6" target="Rt24sEBHtyEfpPhC-ors-8">
          <mxGeometry relative="1" as="geometry" />
        </mxCell>
        <mxCell id="Rt24sEBHtyEfpPhC-ors-11" style="edgeStyle=orthogonalEdgeStyle;rounded=0;orthogonalLoop=1;jettySize=auto;html=1;entryX=0;entryY=0.5;entryDx=0;entryDy=0;" edge="1" parent="1" source="Rt24sEBHtyEfpPhC-ors-6" target="Rt24sEBHtyEfpPhC-ors-10">
          <mxGeometry relative="1" as="geometry" />
        </mxCell>
        <mxCell id="Rt24sEBHtyEfpPhC-ors-6" value="Subnet&lt;div&gt;(192.168.1.xxx)&lt;/div&gt;" style="rounded=0;whiteSpace=wrap;html=1;" vertex="1" parent="1">
          <mxGeometry x="294" y="280" width="120" height="60" as="geometry" />
        </mxCell>
        <mxCell id="Rt24sEBHtyEfpPhC-ors-8" value="Host 1&lt;div&gt;&lt;div&gt;(192.168.1.100)&lt;/div&gt;&lt;/div&gt;" style="rounded=0;whiteSpace=wrap;html=1;" vertex="1" parent="1">
          <mxGeometry x="190" y="400" width="120" height="60" as="geometry" />
        </mxCell>
        <mxCell id="Rt24sEBHtyEfpPhC-ors-10" value="Host 2&lt;div&gt;(192.168.1.144)&lt;/div&gt;" style="rounded=0;whiteSpace=wrap;html=1;" vertex="1" parent="1">
          <mxGeometry x="400" y="400" width="120" height="60" as="geometry" />
        </mxCell>
      </root>
    </mxGraphModel>
  </diagram>
</mxfile>
